# xmcd
#
# Track frame offsets: 
#        182
#        18800
#        52957
#        83117
#        116262
#        150007
#
# Disc length: 2318 seconds
#
# Revision: 2
# Processed by: cddbd v1.5.1PL0 Copyright (c) Steve Scherf et al.
# Submitted via: ExactAudioCopy v0.95a5
#
DISCID=2d090c06
DTITLE=TKA Feat Michelle Visage - Crash (Have Some Fun)
DYEAR=1990
DGENRE=Dance
TTITLE0=Crash (Have Some Fun) [Radio Edit]
TTITLE1=Crash (Have Some Fun) [12 Inch Remix]
TTITLE2=Crash (Have Some Fun) [Remix Dub]
TTITLE3=Crash (Have Some Fun) [Short Stop Remix] 
TTITLE4=Crash (Have Some Fun) [Emergency Landing Mix]
TTITLE5=Crash (Have Some Fun) [Stop Short Dub]
EXTD=
EXTT0=
EXTT1=
EXTT2=
EXTT3=
EXTT4=
EXTT5=
PLAYORDER=
